<?xml version="1.0" encoding="utf-8"?>
<!-- Generator: Adobe Illustrator 23.0.1, SVG Export Plug-In . SVG Version: 6.00 Build 0)  -->
<svg version="1.1" id="Layer_1" xmlns="http://www.w3.org/2000/svg" xmlns:xlink="http://www.w3.org/1999/xlink" x="0px" y="0px"
	 width="15.4960003px" height="15.4960003px" viewBox="0 0 15.4960003 15.4960003"
	 style="enable-background:new 0 0 15.4960003 15.4960003;" xml:space="preserve">
<style type="text/css">
	.st0{fill:#FEE565;}
	.st1{fill:#FDD62F;}
	.st2{fill:#1D1D1D;}
</style>
<circle class="st0" cx="7.7517633" cy="7.7515717" r="7.7482371"/>
<path class="st1" d="M1.3499037,8.4293537c0,2.3797703,0.979884,4.5195742,2.5696931,6.0594006
	C1.5798615,13.1588678,0,10.6391582,0,7.7494278C0,3.46982,3.4696901,0.000191,7.7492371,0.000191
	c0.3399935,0,0.6699171,0.0200175,0.989893,0.0700004C4.5695572,0.580151,1.3499037,4.1297894,1.3499037,8.4293537z"/>
<path class="st2" d="M5.2480001,7.2519999c0.5522847,0,1-0.4477148,1-1s-0.4477153-1-1-1s-1,0.4477148-1,1
	C4.2502041,6.803112,4.6978836,7.2485552,5.2490001,7.2480001L5.2480001,7.2519999z M10.2480001,5.2519999
	c-0.5522852,0-1,0.4477148-1,1s0.4477148,1,1,1s1-0.4477148,1-1c0.0016575-0.5522823-0.4447126-1.001339-0.996995-1.0029964
	c-0.0013351-0.0000038-0.0026703-0.0000048-0.0040054-0.0000038L10.2480001,5.2519999z M7.7480001,9.2519989
	c-1.2529454-0.0014076-2.4415078,0.5549393-3.243,1.5179996c-0.2712283,0.3130627-0.2373152,0.7867241,0.0757475,1.0579529
	c0.3130622,0.2712269,0.7867236,0.2373142,1.0579519-0.0757484C5.645288,11.7445984,5.6517229,11.7368622,5.658,11.7289982
	c0.9588132-1.1542759,2.6718092-1.3127289,3.8260841-0.3539143c0.1286097,0.1068306,0.2470837,0.2253056,0.3539152,0.3539143
	c0.2584124,0.3237209,0.7303257,0.3766651,1.0540476,0.1182537c0.3237219-0.2584133,0.3766651-0.7303257,0.1182528-1.0540485
	c-0.0062771-0.007864-0.0127115-0.0156002-0.0193005-0.0232048c-0.8007221-0.9645519-1.989397-1.522419-3.2429991-1.5219994
	V9.2519989z"/>
</svg>
