<?xml version="1.0" encoding="utf-8"?>
<!-- Generator: Adobe Illustrator 23.0.1, SVG Export Plug-In . SVG Version: 6.00 Build 0)  -->
<svg version="1.1" id="Layer_1" xmlns="http://www.w3.org/2000/svg" xmlns:xlink="http://www.w3.org/1999/xlink" x="0px" y="0px"
	 width="15.4960003px" height="15.4960003px" viewBox="0 0 15.4960003 15.4960003"
	 style="enable-background:new 0 0 15.4960003 15.4960003;" xml:space="preserve">
<style type="text/css">
	.st0{fill:#FEE565;}
	.st1{fill:#FDD62F;}
	.st2{fill:#1D1D1D;}
</style>
<circle class="st0" cx="7.7497635" cy="7.7495718" r="7.7482371"/>
<path class="st1" d="M1.3479038,8.4273539c0,2.3797703,0.9798838,4.5195742,2.5696936,6.0594015
	c-2.3397355-1.3298864-3.9195971-3.849597-3.9195971-6.7393274c0-4.2796078,3.4696898-7.7492366,7.7492371-7.7492366
	c0.3399935,0,0.6699171,0.0200176,0.989893,0.0700004C4.5675573,0.5781513,1.3479038,4.1277895,1.3479038,8.4273539z"/>
<path class="st2" d="M6.6919999,7.1890001c0.2436042-0.244319,0.2436042-0.6396809,0-0.8839998l-0.559-0.5559998l0.559-0.559
	c0.2441096-0.2441101,0.2441096-0.6398897,0-0.8839998s-0.6398902-0.2441101-0.8839998,0l-0.559,0.559L4.6929998,4.309001
	c-0.2441096-0.2441101-0.6398902-0.2441101-0.8840001,0s-0.2441099,0.6398897,0,0.8839998l0.5590003,0.559l-0.559,0.559
	c-0.2441099,0.2441101-0.2441099,0.6398897,0,0.8839998s0.6398902,0.2441101,0.8839998,0l0.5559998-0.5559998l0.5510006,0.5609989
	c0.2472143,0.2417526,0.6430783,0.2390747,0.8870001-0.0059996L6.6919999,7.1890001z M11.6919994,4.3080006
	c-0.244319-0.2436047-0.6396809-0.2436047-0.8839998,0l-0.559,0.5559998L9.6929998,4.3080006
	c-0.2441101-0.2441101-0.6398897-0.2441101-0.8839998,0s-0.2441101,0.6398897,0,0.8839998l0,0l0.559,0.559l-0.559,0.559
	c-0.2441101,0.2441101-0.2441101,0.6398897,0,0.8839998s0.6398897,0.2441101,0.8839998,0l0,0l0.5559998-0.5559998
	l0.5559998,0.5559998c0.2441101,0.2441101,0.6398897,0.2441101,0.8839998,0s0.2441101-0.6398897,0-0.8839998l0,0
	l-0.5559998-0.5620003l0.559-0.559C11.9325352,4.9445877,11.9325352,4.552413,11.6919994,4.3080006z"/>
<path class="st2" d="M7.7489996,8.2480011c-1.1045694,0-2,0.8954296-2,2s0.8954306,2,2,2s2-0.8954296,2-2
	c0.000001-1.1045704-0.8954287-2.0000019-1.9999976-2.0000019c-0.0003343,0-0.000668,0-0.0010018,0L7.7489996,8.2480011z"/>
</svg>
