<?xml version="1.0" encoding="utf-8"?>
<!-- Generator: Adobe Illustrator 23.0.1, SVG Export Plug-In . SVG Version: 6.00 Build 0)  -->
<svg version="1.1" id="Layer_1" xmlns="http://www.w3.org/2000/svg" xmlns:xlink="http://www.w3.org/1999/xlink" x="0px" y="0px"
	 width="15.4980001px" height="15.4980001px" viewBox="0 0 15.4980001 15.4980001"
	 style="enable-background:new 0 0 15.4980001 15.4980001;" xml:space="preserve">
<style type="text/css">
	.st0{fill:#FEE565;}
	.st1{fill:#FDD62F;}
	.st2{fill:#1D1D1D;}
	.st3{fill:#81B7F2;}
</style>
<path class="st0" d="M15.5,7.7500143c0,2.5999756-1.2800293,4.8999634-3.25,6.3099976
	c-0.460022,0.3300171-0.9699707,0.6099854-1.5,0.8399658c-0.9199829,0.3900146-1.9400024,0.6000366-3,0.6000366
	s-2.0800171-0.210022-3-0.6000366c-0.5300293-0.2299805-1.039978-0.5099487-1.5-0.8399658
	C1.2800293,12.6499777,0,10.3499899,0,7.7500143c0-4.2800293,3.4699707-7.75,7.75-7.75S15.5,3.469985,15.5,7.7500143z"/>
<path class="st1" d="M1.3489038,8.4283543c0,2.3797703,0.9798838,4.5195742,2.5696936,6.0594006
	c-2.3397355-1.3298855-3.9195971-3.849596-3.9195971-6.739327c0-4.2796078,3.4696898-7.7492366,7.7492371-7.7492366
	c0.339994,0,0.6699166,0.0200176,0.9898925,0.0700004C4.5685573,0.5791513,1.3489038,4.1287894,1.3489038,8.4283543z"/>
<path class="st2" d="M4.75,5.3700094C3.9000244,5.3399801,3.1400146,5.8800192,2.8800049,6.6900167
	C2.8499756,6.890029,2.9899902,7.0899801,3.1900024,7.1200094C3.3099976,7.140029,3.4199829,7.0999899,3.5,7.0299826
	l0.2999878-0.2699585c0.5700073-0.4100342,1.3400269-0.4100342,1.9100342,0l0.2999878,0.2699585
	C6.1199951,7.1300192,6.289978,7.1499777,6.4299927,7.0799704V7.0700216
	c0.1400146-0.0700073,0.2200317-0.2300415,0.1900024-0.3800049C6.3699951,5.8800192,5.5999756,5.3399801,4.75,5.3700094z
	 M7.75,8.2500143c-1.0300293,0.0700073-1.8099976,0.9699707-1.75,2c-0.0599976,1.0299683,0.7199707,1.9199829,1.75,2
	c1.0300293-0.0800171,1.8099976-0.9700317,1.75-2C9.5599976,9.219985,8.7800293,8.3200216,7.75,8.2500143z M10.7600098,5.3800192
	L10.75,5.3700094C9.9000244,5.3399801,9.1300049,5.8800192,8.8800049,6.6900167
	C8.8499756,6.890029,8.9899902,7.0899801,9.1900024,7.1200094C9.2999878,7.140029,9.4199829,7.0999899,9.5,7.0299826
	l0.2999878-0.2699585c0.5700073-0.4100342,1.3400269-0.4100342,1.9100342,0l0.2999878,0.2699585
	c0.1499634,0.1300049,0.3900146,0.1199951,0.5200195-0.0299683c0.0799561-0.0900269,0.1099854-0.2000122,0.0899658-0.3099976
	C12.3699951,5.8800192,11.5999756,5.3399801,10.7600098,5.3800192z"/>
<path class="st3" d="M4.75,8.5000143v6.3999634c-0.5300293-0.2299805-1.039978-0.5099487-1.5-0.8399658V8.5000143
	c0-0.4100342,0.3300171-0.75,0.75-0.75C4.4099731,7.7500143,4.75,8.0899801,4.75,8.5000143z M11.5,7.7500143
	c-0.4199829,0-0.75,0.3399658-0.75,0.75v6.3999634c0.5300293-0.2299805,1.039978-0.5099487,1.5-0.8399658V8.5000143
	C12.25,8.0899801,11.9099731,7.7500143,11.5,7.7500143z"/>
</svg>
