<?xml version="1.0" encoding="utf-8"?>
<!-- Generator: Adobe Illustrator 23.0.1, SVG Export Plug-In . SVG Version: 6.00 Build 0)  -->
<svg version="1.1" id="Layer_1" xmlns="http://www.w3.org/2000/svg" xmlns:xlink="http://www.w3.org/1999/xlink" x="0px" y="0px"
	 width="15.4980001px" height="15.4980001px" viewBox="0 0 15.4980001 15.4980001"
	 style="enable-background:new 0 0 15.4980001 15.4980001;" xml:space="preserve">
<style type="text/css">
	.st0{fill:#FEE565;}
	.st1{fill:#FDD62F;}
	.st2{fill:#1D1D1D;}
</style>
<circle class="st0" cx="7.7517633" cy="7.7515717" r="7.7482371"/>
<path class="st1" d="M1.3499037,8.4293537c0,2.3797703,0.979884,4.5195742,2.5696931,6.0594006
	C1.5798615,13.1588678,0,10.6391582,0,7.7494278C0,3.46982,3.4696901,0.000191,7.7492371,0.000191
	c0.3399935,0,0.6699171,0.0200175,0.989893,0.0700004C4.5695572,0.580151,1.3499037,4.1297894,1.3499037,8.4293537z"/>
<path class="st2" d="M5.2490001,7.2509995c0.5522847,0,1-0.4477148,1-1s-0.4477153-1-1-1s-1,0.4477148-1,1
	c0.0011029,0.5515032,0.4484954,0.9980011,1,0.9980001V7.2509995z M10.2490005,7.2509995c0.5522852,0,1-0.4477148,1-1
	s-0.4477148-1-1-1s-1,0.4477148-1,1c0.0011034,0.5515032,0.4484949,0.9980011,0.999999,0.9980001L10.2490005,7.2509995z
	 M10.3740005,9.5189991c-1.2050152,1.4494705-3.3569016,1.6476421-4.8063731,0.442627
	c-0.1607895-0.1336727-0.3089547-0.2818375-0.442627-0.442627C4.8537722,9.2059364,4.3801107,9.1720238,4.0670485,9.4432526
	c-0.3041899,0.2635403-0.3461368,0.7201996-0.095048,1.0347462c1.7400966,2.086256,4.8419671,2.3668728,6.9282231,0.6267776
	c0.2273626-0.1896381,0.4371395-0.399416,0.6267767-0.6267776c0.2584124-0.3237209,0.2054691-0.7956352-0.1182528-1.0540466
	C11.0942001,9.172863,10.6375418,9.2148094,10.3740005,9.5189991z"/>
</svg>
