<?xml version="1.0" encoding="UTF-8" standalone="no"?> <svg id="Layer_1" data-name="Layer 1" xmlns="http://www.w3.org/2000/svg" viewBox="0 0 64 64"><title>balloon</title><path d="M33,41V60a1,1,0,0,1-2,0V41Z"/><path d="M35.38,39H28.62l2.05-4.09.21,0L31,35l.23,0h.22A4.87,4.87,0,0,0,32,35l.63,0,.7-.07Z"/><path d="M35.38,39H28.62l2.05-4.09.21,0L31,35l.23,0h.22A4.87,4.87,0,0,0,32,35l.63,0,.7-.07Z"/><path d="M44.52,16.09a12.35,12.35,0,0,1-1.77,6.39l-4,6.72a7.83,7.83,0,0,1-5,3.62,7.72,7.72,0,0,1-2.1.17l-.63-.06a6.18,6.18,0,0,1-.62-.12,7.76,7.76,0,0,1-5-3.62l-4-6.71A12.41,12.41,0,0,1,23.12,7.3,7.73,7.73,0,0,1,28.66,5h6.68a7.89,7.89,0,0,1,5.54,2.3A12.33,12.33,0,0,1,44.52,16.09Z"/></svg>